<svg id="Layer_1" data-name="Layer 1" xmlns="http://www.w3.org/2000/svg" viewBox="0 0 869.72 869.73"><defs><style>.cls-1{fill:#ffda24;}.cls-2{fill:#fff;opacity:0.15;}</style></defs><title>sunny</title><path class="cls-1" d="M854.39,501.14c0,195.47-158.46,353.91-353.92,353.91S146.54,696.61,146.54,501.14,305,147.22,500.47,147.22,854.39,305.69,854.39,501.14Z" transform="translate(-65.61 -66.27)"/><path class="cls-1" d="M209.07,177.55l-32.18,32.18a42.92,42.92,0,0,0,0,60.55l31.33,31.32A356,356,0,0,1,301,208.87l-31.35-31.31A42.9,42.9,0,0,0,209.07,177.55Zm582.81,0a43,43,0,0,0-60.56,0L700,208.89a355.3,355.3,0,0,1,92.73,92.75L824,270.3a43,43,0,0,0,0-60.57ZM523.2,66.27H477.72a43,43,0,0,0-42.84,42.82v44.43a344.06,344.06,0,0,1,131.13,0V109.09A42.94,42.94,0,0,0,523.2,66.27ZM108.43,435.56a43,43,0,0,0-42.82,42.85v45.46a43,43,0,0,0,42.82,42.86h44.43a343.5,343.5,0,0,1,0-131.17ZM792.7,700.65A355.21,355.21,0,0,1,700,793.37l31.34,31.31a42.94,42.94,0,0,0,60.56,0L824,792.54A43,43,0,0,0,824,732Zm99.77-265.09H848.09a344.54,344.54,0,0,1,0,131.17h44.39a43,43,0,0,0,42.85-42.86V478.41A43,43,0,0,0,892.48,435.56ZM208.2,700.65,176.89,732a42.93,42.93,0,0,0,0,60.56L209,824.72a43,43,0,0,0,60.58,0l31.33-31.31A356.63,356.63,0,0,1,208.2,700.65Zm226.68,148.1v44.44A43,43,0,0,0,477.72,936H523.2A42.93,42.93,0,0,0,566,893.18V848.75a344.06,344.06,0,0,1-131.13,0Z" transform="translate(-65.61 -66.27)"/><path class="cls-2" d="M731.31,177.55,700,208.89a351.84,351.84,0,0,0-134-55.36V109.09A42.94,42.94,0,0,0,523.2,66.27H477.72a43,43,0,0,0-42.84,42.82v44.43A352.12,352.12,0,0,0,301,208.87l-31.35-31.31a42.9,42.9,0,0,0-60.54,0l-32.18,32.18a42.92,42.92,0,0,0,0,60.55l31.33,31.32a352.09,352.09,0,0,0-55.36,134H108.43a43,43,0,0,0-42.82,42.85v45.46a43,43,0,0,0,42.82,42.86h44.43A352.15,352.15,0,0,0,208.2,700.65L176.89,732a42.93,42.93,0,0,0,0,60.56l18.59,18.61,615-615-18.59-18.59A43,43,0,0,0,731.31,177.55Z" transform="translate(-65.61 -66.27)"/></svg>