<svg id="Layer_1" data-name="Layer 1" xmlns="http://www.w3.org/2000/svg" viewBox="0 0 852.33 852.33"><defs><style>.cls-1{fill:#d6d4c1;}.cls-2{fill:#c9c8b9;}.cls-3{fill:#c6c4b3;}.cls-4{fill:#ceccc0;}</style></defs><title>clear-night</title><path class="cls-1" d="M927.09,499.83C927.09,735.21,736.27,926,500.91,926S74.76,735.21,74.76,499.83,265.56,73.67,500.91,73.67,927.09,264.46,927.09,499.83Z" transform="translate(-74.76 -73.67)"/><path class="cls-2" d="M500.91,73.67A424.06,424.06,0,0,0,272.08,140.4a424,424,0,0,0-66.72,228.83c0,235.36,190.78,426.16,426.17,426.16a424.27,424.27,0,0,0,228.84-66.7,424.21,424.21,0,0,0,66.72-228.85C927.09,264.46,736.27,73.67,500.91,73.67Z" transform="translate(-74.76 -73.67)"/><path class="cls-3" d="M305.94,447.27a79.9,79.9,0,1,1-79.89-79.88A79.88,79.88,0,0,1,305.94,447.27Z" transform="translate(-74.76 -73.67)"/><path class="cls-4" d="M226.06,367.39a79.63,79.63,0,0,0-42.92,12.5A79.88,79.88,0,0,0,293.43,490.16a79.85,79.85,0,0,0-67.38-122.76Z" transform="translate(-74.76 -73.67)"/><path class="cls-3" d="M632.29,481.65a112,112,0,1,1-112-112A112,112,0,0,1,632.29,481.65Z" transform="translate(-74.76 -73.67)"/><path class="cls-4" d="M520.33,369.68a111.54,111.54,0,0,0-60.12,17.53A111.95,111.95,0,0,0,614.76,541.77a111.94,111.94,0,0,0-94.43-172.09Z" transform="translate(-74.76 -73.67)"/><path class="cls-3" d="M370.21,720.91a46.78,46.78,0,1,1-46.78-46.78A46.79,46.79,0,0,1,370.21,720.91Z" transform="translate(-74.76 -73.67)"/><path class="cls-4" d="M323.44,674.13a46.63,46.63,0,0,0-25.14,7.33,46.79,46.79,0,0,0,64.58,64.59,46.78,46.78,0,0,0-39.45-71.92Z" transform="translate(-74.76 -73.67)"/><path class="cls-3" d="M758.26,254a57.38,57.38,0,1,1-57.37-57.38A57.35,57.35,0,0,1,758.26,254Z" transform="translate(-74.76 -73.67)"/><path class="cls-4" d="M700.89,196.58a56.91,56.91,0,0,0-30.8,9,57.36,57.36,0,0,0,79.19,79.2,57.37,57.37,0,0,0-48.39-88.18Z" transform="translate(-74.76 -73.67)"/><path class="cls-3" d="M415,188a32.67,32.67,0,1,1-32.68-32.66A32.68,32.68,0,0,1,415,188Z" transform="translate(-74.76 -73.67)"/><path class="cls-4" d="M382.3,155.35a32.43,32.43,0,0,0-17.51,5.1,32.66,32.66,0,0,0,45.09,45.11,32.68,32.68,0,0,0-27.58-50.21Z" transform="translate(-74.76 -73.67)"/><path class="cls-3" d="M870.91,543.62A59.6,59.6,0,1,1,811.32,484,59.63,59.63,0,0,1,870.91,543.62Z" transform="translate(-74.76 -73.67)"/><path class="cls-4" d="M811.32,484a58.59,58.59,0,0,0-32,9.36,58.71,58.71,0,0,0-9.31,32,59.59,59.59,0,0,0,91.56,50.29,59,59,0,0,0,9.33-32A59.59,59.59,0,0,0,811.32,484Z" transform="translate(-74.76 -73.67)"/><path class="cls-3" d="M680.14,788.13a51.37,51.37,0,1,1-51.38-51.37A51.35,51.35,0,0,1,680.14,788.13Z" transform="translate(-74.76 -73.67)"/><path class="cls-4" d="M628.76,736.77a51.16,51.16,0,0,0-27.56,8,51.35,51.35,0,0,0,70.89,70.91,51.36,51.36,0,0,0-43.33-79Z" transform="translate(-74.76 -73.67)"/></svg>