<svg id="Layer_1" data-name="Layer 1" xmlns="http://www.w3.org/2000/svg" viewBox="0 0 912.8 578.89"><defs><style>.cls-1{fill:#fff;}.cls-2{fill:#f2f4f9;}</style></defs><title>cloudy_day</title><path class="cls-1" d="M549,211.11c-106.55,0-196.74,69.49-228,165.58A184.76,184.76,0,0,0,189.79,488.22C108.78,491,43.93,557.31,43.93,639s64.64,147.77,145.43,150.76V790H551.79V211.24C550.86,211.2,549.94,211.11,549,211.11Z" transform="translate(-43.93 -211.11)"/><path class="cls-2" d="M786.94,421.58C772.51,303.93,673,212.62,551.79,211.24V790H780.24v-.43c98.18-4.26,176.49-85,176.49-184.16C956.73,508.47,881.93,429.14,786.94,421.58Z" transform="translate(-43.93 -211.11)"/></svg>