<svg id="Layer_1" data-name="Layer 1" xmlns="http://www.w3.org/2000/svg" viewBox="0 0 874.28 741"><defs><style>.cls-1{fill:#ffda24;}.cls-2,.cls-3{fill:#fff;}.cls-2{opacity:0.15;}.cls-4{fill:#f2f4f9;}</style></defs><title>partly-cloudy-day</title><path class="cls-1" d="M868.42,498.21c0,165.62-134.24,299.88-299.86,299.88S268.7,663.83,268.7,498.21,403,198.34,568.56,198.34,868.42,332.62,868.42,498.21Z" transform="translate(-62.72 -129.76)"/><path class="cls-1" d="M321.67,224.05l-27.26,27.26a36.38,36.38,0,0,0,0,51.3L321,329.15a301.26,301.26,0,0,1,78.54-78.56L373,224.05A36.35,36.35,0,0,0,321.67,224.05Zm493.81,0a36.47,36.47,0,0,0-51.35,0l-26.55,26.56a300.58,300.58,0,0,1,78.58,78.56l26.54-26.54a36.34,36.34,0,0,0,0-51.29ZM587.84,129.76H549.33A36.39,36.39,0,0,0,513,166V203.7a290.57,290.57,0,0,1,111.11,0V166A36.38,36.38,0,0,0,587.84,129.76ZM236.41,442.66A36.41,36.41,0,0,0,200.1,479v38.53a36.41,36.41,0,0,0,36.31,36.28H274a291.78,291.78,0,0,1,0-111.1ZM816.17,667.25a301,301,0,0,1-78.58,78.57l26.55,26.53a36.44,36.44,0,0,0,51.35,0l27.23-27.25a36.39,36.39,0,0,0,0-51.33Zm84.55-224.59H863.09a291.78,291.78,0,0,1,0,111.1h37.63A36.38,36.38,0,0,0,937,517.49V479A36.39,36.39,0,0,0,900.72,442.66ZM320.95,667.25,294.41,693.8a36.4,36.4,0,0,0,0,51.31l27.26,27.27a36.4,36.4,0,0,0,51.31,0l26.54-26.55A301.55,301.55,0,0,1,320.95,667.25ZM513,792.75v37.64a36.39,36.39,0,0,0,36.32,36.28h38.51a36.39,36.39,0,0,0,36.28-36.28V792.75a291.6,291.6,0,0,1-111.11,0Z" transform="translate(-62.72 -129.76)"/><path class="cls-2" d="M764.14,224.05l-26.55,26.56A297.44,297.44,0,0,0,624.12,203.7V166a36.38,36.38,0,0,0-36.28-36.28H549.33A36.39,36.39,0,0,0,513,166V203.7a297.89,297.89,0,0,0-113.49,46.9L373,224.05a36.35,36.35,0,0,0-51.31,0l-27.26,27.26a36.38,36.38,0,0,0,0,51.3L321,329.15a298,298,0,0,0-47,113.51H236.41A36.41,36.41,0,0,0,200.1,479v38.53a36.41,36.41,0,0,0,36.31,36.28H274a298.25,298.25,0,0,0,46.92,113.49L294.41,693.8a36.4,36.4,0,0,0,0,51.31l15.75,15.77L831.24,239.81l-15.75-15.75A36.47,36.47,0,0,0,764.14,224.05Z" transform="translate(-62.72 -129.76)"/><path class="cls-3" d="M532.1,332.78c-99,0-182.82,64.6-211.94,153.88A171.71,171.71,0,0,0,198.28,590.31C123,592.86,62.72,654.52,62.72,730.39s60.1,137.34,135.16,140.13v.25H534.71V332.91C533.85,332.89,533,332.78,532.1,332.78Z" transform="translate(-62.72 -129.76)"/><path class="cls-4" d="M753.24,528.37C739.83,419.05,647.4,334.19,534.71,332.91V870.76H747v-.41c91.22-4,164-78.94,164-171.13C911,609.13,841.5,535.4,753.24,528.37Z" transform="translate(-62.72 -129.76)"/></svg>