<svg id="Layer_1" data-name="Layer 1" xmlns="http://www.w3.org/2000/svg" viewBox="0 0 885.87 788.15"><defs><style>.cls-1{fill:#d6d4c1;}.cls-2{fill:#c9c8b9;}.cls-3{fill:#c6c4b3;}.cls-4{fill:#ceccc0;}.cls-5{fill:#b7b284;}.cls-6{fill:#c1be99;}.cls-7{fill:#e5e5e5;}.cls-8{fill:#d5d8db;}</style></defs><title>partly-cloudy-night</title><path class="cls-1" d="M908,492.83c0,217.65-176.45,394.08-394.08,394.08S119.85,710.48,119.85,492.83,296.28,98.76,513.92,98.76,908,275.19,908,492.83Z" transform="translate(-48.34 -98.76)"/><path class="cls-2" d="M513.92,98.76a392.13,392.13,0,0,0-211.61,61.7,392.07,392.07,0,0,0-61.69,211.6c0,217.64,176.42,394.07,394.08,394.07a392.32,392.32,0,0,0,211.61-61.68A392.27,392.27,0,0,0,908,492.83C908,275.19,731.55,98.76,513.92,98.76Z" transform="translate(-48.34 -98.76)"/><path class="cls-3" d="M333.62,444.23a73.88,73.88,0,1,1-73.87-73.87A73.87,73.87,0,0,1,333.62,444.23Z" transform="translate(-48.34 -98.76)"/><path class="cls-4" d="M259.75,370.36a73.63,73.63,0,0,0-39.69,11.55,73.86,73.86,0,0,0,102,102,73.84,73.84,0,0,0-62.3-113.52Z" transform="translate(-48.34 -98.76)"/><path class="cls-3" d="M635.4,476A103.53,103.53,0,1,1,531.87,372.48,103.52,103.52,0,0,1,635.4,476Z" transform="translate(-48.34 -98.76)"/><path class="cls-4" d="M531.87,372.48a103.14,103.14,0,0,0-55.6,16.21A103.52,103.52,0,0,0,619.19,531.61a103.51,103.51,0,0,0-87.32-159.13Z" transform="translate(-48.34 -98.76)"/><path class="cls-3" d="M393.06,697.27A43.26,43.26,0,1,1,349.8,654,43.27,43.27,0,0,1,393.06,697.27Z" transform="translate(-48.34 -98.76)"/><path class="cls-4" d="M349.8,654a43.12,43.12,0,0,0-23.24,6.78,43.26,43.26,0,0,0,59.72,59.73A43.26,43.26,0,0,0,349.8,654Z" transform="translate(-48.34 -98.76)"/><path class="cls-3" d="M751.88,265.47a53.06,53.06,0,1,1-53-53.06A53,53,0,0,1,751.88,265.47Z" transform="translate(-48.34 -98.76)"/><path class="cls-4" d="M698.84,212.41a52.63,52.63,0,0,0-28.48,8.3A53,53,0,0,0,743.58,294a53,53,0,0,0-44.75-81.54Z" transform="translate(-48.34 -98.76)"/><path class="cls-3" d="M434.45,204.49a30.21,30.21,0,1,1-30.22-30.2A30.22,30.22,0,0,1,434.45,204.49Z" transform="translate(-48.34 -98.76)"/><path class="cls-4" d="M404.23,174.29A30,30,0,0,0,388,179a30.2,30.2,0,0,0,41.69,41.71,30.22,30.22,0,0,0-25.5-46.43Z" transform="translate(-48.34 -98.76)"/><path class="cls-3" d="M856,533.32A55.11,55.11,0,1,1,801,478.22,55.14,55.14,0,0,1,856,533.32Z" transform="translate(-48.34 -98.76)"/><path class="cls-4" d="M801,478.22a54.18,54.18,0,0,0-29.59,8.66,54.29,54.29,0,0,0-8.61,29.56,55.11,55.11,0,0,0,84.67,46.51A54.52,54.52,0,0,0,856,533.32,55.1,55.1,0,0,0,801,478.22Z" transform="translate(-48.34 -98.76)"/><path class="cls-3" d="M679.65,759.43a47.5,47.5,0,1,1-47.51-47.5A47.49,47.49,0,0,1,679.65,759.43Z" transform="translate(-48.34 -98.76)"/><path class="cls-4" d="M632.14,711.93a47.31,47.31,0,0,0-25.48,7.44,47.49,47.49,0,0,0,65.55,65.57,47.49,47.49,0,0,0-40.07-73Z" transform="translate(-48.34 -98.76)"/><path class="cls-5" d="M693.27,477a98.19,98.19,0,1,1-98.19-98.2A98.18,98.18,0,0,1,693.27,477Z" transform="translate(-48.34 -98.76)"/><path class="cls-6" d="M595.07,378.84a97.62,97.62,0,0,0-52.71,15.38A98.16,98.16,0,0,0,677.88,529.75a98.15,98.15,0,0,0-82.81-150.91Z" transform="translate(-48.34 -98.76)"/><path class="cls-5" d="M463.43,686.86a41,41,0,1,1-41-41A41,41,0,0,1,463.43,686.86Z" transform="translate(-48.34 -98.76)"/><path class="cls-6" d="M422.41,645.83a40.86,40.86,0,0,0-22.05,6.42A41,41,0,0,0,457,708.91a41,41,0,0,0-34.6-63.08Z" transform="translate(-48.34 -98.76)"/><path class="cls-5" d="M735.23,745.81a45.05,45.05,0,1,1-45-45.05A45,45,0,0,1,735.23,745.81Z" transform="translate(-48.34 -98.76)"/><path class="cls-6" d="M690.18,700.76a45,45,0,0,0-24.2,7.06A45,45,0,0,0,728.16,770a45,45,0,0,0-38-69.25Z" transform="translate(-48.34 -98.76)"/><path class="cls-7" d="M538.49,321.19c-103.37,0-190.9,67.46-221.31,160.7A179.32,179.32,0,0,0,189.9,590.12C111.3,592.79,48.34,657.18,48.34,736.41S111.1,879.82,189.5,882.74V883H541.22V321.32C540.31,321.3,539.44,321.19,538.49,321.19Z" transform="translate(-48.34 -98.76)"/><path class="cls-8" d="M769.47,525.45c-14-114.16-110.56-202.78-228.26-204.13V883H762.94v-.43c95.26-4.13,171.27-82.44,171.27-178.71C934.21,609.78,861.61,532.78,769.47,525.45Z" transform="translate(-48.34 -98.76)"/></svg>