<?xml version="1.0" encoding="utf-8"?>
<!-- Generator: Adobe Illustrator 19.0.0, SVG Export Plug-In . SVG Version: 6.00 Build 0)  -->
<svg version="1.1" id="Layer_1" xmlns="http://www.w3.org/2000/svg" xmlns:xlink="http://www.w3.org/1999/xlink" x="0px" y="0px"
	 viewBox="131 26 874.3 741" style="enable-background:new 131 26 874.3 741;" xml:space="preserve">
<style type="text/css">
	.st0{fill:#FFDA24;}
	.st1{opacity:0.15;fill:#FFFFFF;enable-background:new    ;}
	.st2{fill:#F7F7F7;}
	.st3{fill:#F2F4F9;}
</style>
<title>partly-cloudy-day</title>
<path class="st0" d="M936.7,394.5c0,165.6-134.2,299.9-299.9,299.9S337,560.1,337,394.5S471.3,94.6,636.8,94.6
	S936.7,228.9,936.7,394.5z"/>
<path class="st1" d="M656.1,26"/>
<path class="st2" d="M600.4,229c-99,0-182.8,64.6-211.9,153.9c-55.2,12.4-100.8,51.1-121.9,103.6C191.3,489.1,131,550.8,131,626.6
	S191.1,764,266.2,766.8v0.3H603V229.2C602.1,229.1,601.3,229,600.4,229z"/>
<path class="st3" d="M821.5,424.6C808.1,315.3,715.7,230.4,603,229.2V767h212.3v-0.4c91.2-4,164-78.9,164-171.1
	C979.3,505.4,909.8,431.6,821.5,424.6z"/>
</svg>
