<svg id="Layer_1" data-name="Layer 1" xmlns="http://www.w3.org/2000/svg" viewBox="0 0 926.66 836.65"><defs><style>.cls-1{fill:#fff;}.cls-2{fill:#f2f4f9;}.cls-3{fill:#00a4ff;}.cls-4{fill:#0085f2;}</style></defs><title>rain_day</title><path class="cls-1" d="M549.72,82.53c-108.17,0-199.72,70.55-231.5,168.09A187.56,187.56,0,0,0,185.07,363.85C102.84,366.64,37,434,37,516.88s65.62,150,147.63,153.05v.28H552.58V82.66C551.62,82.62,550.69,82.53,549.72,82.53Z" transform="translate(-37 -82.53)"/><path class="cls-2" d="M791.29,296.2C776.64,176.76,675.65,84.07,552.58,82.66V670.21H784.49v-.44c99.67-4.32,179.17-86.24,179.17-186.95C963.66,384.4,887.72,303.88,791.29,296.2Z" transform="translate(-37 -82.53)"/><path class="cls-3" d="M396.85,525.21,336.28,650.59l-5.13,10.62a112.62,112.62,0,0,0-8.83,43.37c-.3,53.38,35.2,96.87,79.31,97.1l1.56-281.9C400.9,519.78,398.61,521.57,396.85,525.21Z" transform="translate(-37 -82.53)"/><path class="cls-4" d="M473.68,662.05l-5.07-10.77-59.16-126c-1.69-3.62-4-5.46-6.26-5.47l-1.56,281.9c44.07.23,80.05-42.85,80.37-96.21A113,113,0,0,0,473.68,662.05Z" transform="translate(-37 -82.53)"/><path class="cls-3" d="M546.81,718l-53.88,90.8-4.57,7.69a70.21,70.21,0,0,0,61.48,102.7l2.57-205.1C550.41,714.06,548.38,715.35,546.81,718Z" transform="translate(-37 -82.53)"/><path class="cls-4" d="M613.91,818.09l-4.42-7.87L557.91,718.1c-1.47-2.65-3.48-4-5.49-4l-2.57,205.1a70.23,70.23,0,0,0,64.06-101.09Z" transform="translate(-37 -82.53)"/><path class="cls-3" d="M660.68,561l-37.74,70.23-3.2,6a53,53,0,0,0,49.68,75.52l-4.63-154.82C663.27,558,661.78,559,660.68,561Z" transform="translate(-37 -82.53)"/><path class="cls-4" d="M714.51,634.41l-3.59-5.8-41.86-67.84c-1.2-2-2.75-2.91-4.27-2.86l4.63,154.82a53,53,0,0,0,45.09-78.32Z" transform="translate(-37 -82.53)"/></svg>