<svg id="Layer_1" data-name="Layer 1" xmlns="http://www.w3.org/2000/svg" viewBox="0 0 876.6 634.83"><defs><style>.cls-1{fill:#fff;}.cls-2{fill:#f2f4f9;}.cls-3{fill:#0098ff;}.cls-4{fill:#00a4ff;}.cls-5{fill:#0085f2;}</style></defs><title>sleet</title><path class="cls-1" d="M547.22,143.17c-102.33,0-188.94,66.75-219,159a177.43,177.43,0,0,0-126,107.11c-77.79,2.65-140.06,66.36-140.06,144.77S124.24,696,201.83,698.85v.26H549.9V143.3C549,143.26,548.11,143.17,547.22,143.17Z" transform="translate(-62.18 -143.17)"/><path class="cls-2" d="M775.72,345.31c-13.84-113-109.38-200.68-225.83-202V699.12H769.31v-.42c94.27-4.09,169.47-81.58,169.47-176.86C938.78,428.75,866.95,352.57,775.72,345.31Z" transform="translate(-62.18 -143.17)"/><path class="cls-3" d="M522.64,724.63l-21.07-12.17,18.34-4.92a1.86,1.86,0,0,0,1.32-2.27l-3-11a1.85,1.85,0,0,0-2.26-1.31l-33,8.84-26.9-15.53L483,670.69l33,8.84a1.84,1.84,0,0,0,2.26-1.31l3-11a1.88,1.88,0,0,0-1.32-2.28L501.57,660l21.07-12.16a1.86,1.86,0,0,0,.67-2.54l-5.71-9.9a1.85,1.85,0,0,0-2.52-.68L494,646.87l4.92-18.34a1.86,1.86,0,0,0-1.31-2.27l-11-3a1.84,1.84,0,0,0-2.27,1.3l-8.84,33-26.89,15.53V643.47l24.12-24.13a1.84,1.84,0,0,0,0-2.62l-8.07-8.09a1.87,1.87,0,0,0-2.63,0l-13.43,13.43V596.3a1.86,1.86,0,0,0-1.87-1.85H435.27a1.86,1.86,0,0,0-1.85,1.85v25.76L420,608.64a1.84,1.84,0,0,0-2.6,0l-8.09,8.09a1.84,1.84,0,0,0,0,2.62l24.13,24.13v29.65l-25.67-14.82-8.83-33a1.86,1.86,0,0,0-2.28-1.31l-11,3a1.86,1.86,0,0,0-1.32,2.26l4.93,18.34L366.9,634.71a1.85,1.85,0,0,0-2.53.68l-5.73,9.9a1.87,1.87,0,0,0,.68,2.54l22.31,12.88-18.34,4.91a1.87,1.87,0,0,0-1.31,2.28l3,11a1.88,1.88,0,0,0,2.28,1.32l33-8.84,25.66,14.82-25.66,14.82-33-8.84a1.86,1.86,0,0,0-2.27,1.31l-3,11a1.85,1.85,0,0,0,1.31,2.26l18.34,4.92-22.31,12.88a1.86,1.86,0,0,0-.68,2.53l5.73,9.9a1.85,1.85,0,0,0,2.53.68l22.31-12.88-4.93,18.34a1.86,1.86,0,0,0,1.32,2.27l11,3a1.87,1.87,0,0,0,2.28-1.31l8.83-33,25.67-14.82V730.4l-24.13,24.13a1.84,1.84,0,0,0,0,2.61l8.09,8.09a1.83,1.83,0,0,0,2.6,0l13.44-13.43v24.34a1.86,1.86,0,0,0,1.85,1.85h11.42a1.86,1.86,0,0,0,1.87-1.85V751.81L462,765.24a1.86,1.86,0,0,0,2.63,0l8.07-8.09a1.84,1.84,0,0,0,0-2.61L448.55,730.4V699.34l26.89,15.54,8.84,33a1.85,1.85,0,0,0,2.27,1.32l11-3a1.86,1.86,0,0,0,1.31-2.27L494,725.58l21.08,12.16a1.84,1.84,0,0,0,2.52-.68l5.71-9.9A1.85,1.85,0,0,0,522.64,724.63Z" transform="translate(-62.18 -143.17)"/><path class="cls-4" d="M624.19,600l-44.45,74.91L576,681.27A57.93,57.93,0,0,0,626.69,766l2.12-169.2C627.15,596.78,625.49,597.84,624.19,600Z" transform="translate(-62.18 -143.17)"/><path class="cls-5" d="M679.54,682.6l-3.64-6.49-42.55-76c-1.22-2.18-2.87-3.3-4.53-3.32L626.69,766a57.94,57.94,0,0,0,52.85-83.4Z" transform="translate(-62.18 -143.17)"/></svg>