<svg id="Layer_1" data-name="Layer 1" xmlns="http://www.w3.org/2000/svg" viewBox="0 0 876.6 643.9"><defs><style>.cls-1{fill:#fff;}.cls-2{fill:#f2f4f9;}.cls-3{fill:#0098ff;}</style></defs><title>snow</title><path class="cls-1" d="M547.22,143.17c-102.33,0-188.94,66.75-219,159a177.43,177.43,0,0,0-126,107.11c-77.79,2.65-140.06,66.36-140.06,144.77S124.24,696,201.83,698.85v.26H549.9V143.3C549,143.26,548.11,143.17,547.22,143.17Z" transform="translate(-62.18 -143.17)"/><path class="cls-2" d="M775.72,345.31c-13.84-113-109.38-200.68-225.83-202V699.12H769.31v-.42c94.27-4.09,169.47-81.58,169.47-176.86C938.78,428.75,866.95,352.57,775.72,345.31Z" transform="translate(-62.18 -143.17)"/><path class="cls-3" d="M504.64,613.63l-21.07-12.17,18.34-4.92a1.86,1.86,0,0,0,1.32-2.27l-3-11a1.85,1.85,0,0,0-2.26-1.31l-33,8.84-26.9-15.53L465,559.69l33,8.84a1.84,1.84,0,0,0,2.26-1.31l3-11a1.88,1.88,0,0,0-1.32-2.28L483.57,549l21.07-12.16a1.86,1.86,0,0,0,.67-2.54l-5.71-9.9a1.85,1.85,0,0,0-2.52-.68L476,535.87l4.92-18.34a1.86,1.86,0,0,0-1.31-2.27l-11-3a1.84,1.84,0,0,0-2.27,1.3l-8.84,33-26.89,15.53V532.47l24.12-24.13a1.84,1.84,0,0,0,0-2.62l-8.07-8.09a1.87,1.87,0,0,0-2.63,0l-13.43,13.43V485.3a1.86,1.86,0,0,0-1.87-1.85H417.27a1.86,1.86,0,0,0-1.85,1.85v25.76L402,497.64a1.84,1.84,0,0,0-2.6,0l-8.09,8.09a1.84,1.84,0,0,0,0,2.62l24.13,24.13v29.65l-25.67-14.82-8.83-33a1.86,1.86,0,0,0-2.28-1.31l-11,3a1.86,1.86,0,0,0-1.32,2.26l4.93,18.34L348.9,523.71a1.85,1.85,0,0,0-2.53.68l-5.73,9.9a1.87,1.87,0,0,0,.68,2.54l22.31,12.88-18.34,4.91a1.87,1.87,0,0,0-1.31,2.28l3,11a1.88,1.88,0,0,0,2.28,1.32l33-8.84,25.66,14.82-25.66,14.82-33-8.84a1.86,1.86,0,0,0-2.27,1.31l-3,11a1.85,1.85,0,0,0,1.31,2.26l18.34,4.92-22.31,12.88a1.86,1.86,0,0,0-.68,2.53l5.73,9.9a1.85,1.85,0,0,0,2.53.68l22.31-12.88-4.93,18.34a1.86,1.86,0,0,0,1.32,2.27l11,3a1.87,1.87,0,0,0,2.28-1.31l8.83-33,25.67-14.82V619.4l-24.13,24.13a1.84,1.84,0,0,0,0,2.61l8.09,8.09a1.83,1.83,0,0,0,2.6,0l13.44-13.43v24.34a1.86,1.86,0,0,0,1.85,1.85h11.42a1.86,1.86,0,0,0,1.87-1.85V640.81L444,654.24a1.86,1.86,0,0,0,2.63,0l8.07-8.09a1.84,1.84,0,0,0,0-2.61L430.55,619.4V588.34l26.89,15.54,8.84,33a1.85,1.85,0,0,0,2.27,1.32l11-3a1.86,1.86,0,0,0,1.31-2.27L476,614.58l21.08,12.16a1.84,1.84,0,0,0,2.52-.68l5.71-9.9A1.85,1.85,0,0,0,504.64,613.63Z" transform="translate(-62.18 -143.17)"/><path class="cls-3" d="M583.44,780.21l-9.76-17.59,15.09,4.32a1.54,1.54,0,0,0,1.9-1l2.59-9.09a1.53,1.53,0,0,0-1-1.89l-27.14-7.77-12.46-22.46,25.68.43,19.62,20.3a1.52,1.52,0,0,0,2.16,0l6.8-6.57a1.55,1.55,0,0,0,0-2.17L596,725.41l20.11.34a1.54,1.54,0,0,0,1.56-1.51l.16-9.45a1.53,1.53,0,0,0-1.5-1.55l-20.12-.35L607.51,702a1.53,1.53,0,0,0,0-2.17L601,693a1.52,1.52,0,0,0-2.16,0l-20.3,19.62-25.67-.44,12.62-21,27.37-6.84a1.52,1.52,0,0,0,1.11-1.85l-2.28-9.17a1.54,1.54,0,0,0-1.86-1.12L574.56,676l11-18.26a1.54,1.54,0,0,0-.53-2.11l-8.1-4.86a1.54,1.54,0,0,0-2.1.52l-11,18.26L560,654.29a1.52,1.52,0,0,0-1.85-1.11L549,655.47a1.52,1.52,0,0,0-1.11,1.85l6.84,27.38-12.62,21-11.89-21.43L538,657.17a1.53,1.53,0,0,0-1.06-1.9l-9.09-2.6a1.54,1.54,0,0,0-1.9,1l-4.31,15.1L511.3,650.19a1.53,1.53,0,0,0-2.08-.6l-8.27,4.58a1.54,1.54,0,0,0-.6,2.09l10.33,18.62-15.09-4.32a1.54,1.54,0,0,0-1.9,1.06l-2.6,9.08a1.56,1.56,0,0,0,1.05,1.9l27.13,7.77,11.89,21.43-24.5-.41-19.61-20.3a1.54,1.54,0,0,0-2.17,0l-6.8,6.57a1.53,1.53,0,0,0,0,2.16L489,711.07l-21.3-.36a1.53,1.53,0,0,0-1.56,1.5l-.16,9.46a1.53,1.53,0,0,0,1.51,1.56l21.29.36-11.3,10.9a1.54,1.54,0,0,0,0,2.17l6.57,6.8a1.55,1.55,0,0,0,2.17,0l20.29-19.61,24.5.41-13.22,22-27.38,6.84a1.52,1.52,0,0,0-1.11,1.85l2.3,9.18a1.51,1.51,0,0,0,1.85,1.11l15.24-3.8-10.36,17.26a1.54,1.54,0,0,0,.53,2.1l8.1,4.86a1.54,1.54,0,0,0,2.11-.52l10.36-17.26,3.81,15.23A1.53,1.53,0,0,0,525,784.3l9.16-2.3a1.52,1.52,0,0,0,1.11-1.85l-6.83-27.37,13.22-22,12.45,22.46-7.75,27.12a1.53,1.53,0,0,0,1,1.9l9.09,2.6a1.54,1.54,0,0,0,1.89-1.05l4.31-15.09,9.77,17.59a1.52,1.52,0,0,0,2.08.59l8.26-4.59A1.53,1.53,0,0,0,583.44,780.21Z" transform="translate(-62.18 -143.17)"/><path class="cls-3" d="M594.17,624.16l4.18-15.78,6.4,11a1.25,1.25,0,0,0,1.7.45l6.63-3.86a1.24,1.24,0,0,0,.45-1.69L602,594.49l5.33-20.14L622.14,589l.07,22.9a1.23,1.23,0,0,0,1.24,1.23l7.67,0a1.26,1.26,0,0,0,1.24-1.25l0-12.73,11.57,11.51a1.25,1.25,0,0,0,1.76,0l5.41-5.44a1.24,1.24,0,0,0,0-1.75L639.49,592l12.74,0a1.24,1.24,0,0,0,1.24-1.25l0-7.67a1.24,1.24,0,0,0-1.24-1.24l-22.9.06-14.77-14.68,19.19-5.2,19.86,11.38a1.24,1.24,0,0,0,1.69-.46l3.82-6.64a1.25,1.25,0,0,0-.46-1.7l-11.05-6.34,16.68-4.52a1.25,1.25,0,0,0,.87-1.53l-2-7.39a1.25,1.25,0,0,0-1.53-.87l-16.68,4.52,6.33-11.06a1.23,1.23,0,0,0-.46-1.69l-6.66-3.82a1.24,1.24,0,0,0-1.69.46l-11.39,19.86-19.19,5.2L617,538.12l19.79-11.5a1.24,1.24,0,0,0,.45-1.7l-3.86-6.63a1.25,1.25,0,0,0-1.7-.45l-11,6.41,4.42-16.7a1.24,1.24,0,0,0-.88-1.52l-7.42-2a1.25,1.25,0,0,0-1.52.88l-4.42,16.7-6.4-11a1.25,1.25,0,0,0-1.7-.45L596.08,514a1.26,1.26,0,0,0-.45,1.71l11.51,19.8L602,554.74l-14.1-14-.06-22.9a1.25,1.25,0,0,0-1.25-1.24l-7.67,0a1.24,1.24,0,0,0-1.24,1.25l0,12.74-12.26-12.18a1.24,1.24,0,0,0-1.75,0l-5.41,5.45a1.24,1.24,0,0,0,0,1.76l12.25,12.18-12.74,0a1.25,1.25,0,0,0-1.24,1.25l0,7.67A1.26,1.26,0,0,0,557.9,548l22.89-.07,14.1,14-20.11,5.45L554.92,556a1.23,1.23,0,0,0-1.69.46l-3.81,6.66a1.23,1.23,0,0,0,.46,1.69l11.05,6.34-15.76,4.27a1.25,1.25,0,0,0-.87,1.52l2,7.39a1.25,1.25,0,0,0,1.53.88L563.58,581,557.24,592a1.25,1.25,0,0,0,.46,1.7l6.65,3.8a1.24,1.24,0,0,0,1.69-.46l11.39-19.85,20.11-5.45-5.34,20.14L572.43,603.4a1.24,1.24,0,0,0-.45,1.7l3.86,6.63a1.25,1.25,0,0,0,1.7.45l11-6.41-4.18,15.78a1.24,1.24,0,0,0,.88,1.51l7.42,2A1.24,1.24,0,0,0,594.17,624.16Z" transform="translate(-62.18 -143.17)"/></svg>